<?xml version="1.0" encoding="utf-8"?>
<svg width="100px" height="120px" viewbox="0 0 100 120" version="1.1" xmlns:xlink="http://www.w3.org/1999/xlink" xmlns="http://www.w3.org/2000/svg">
  <defs>
    <rect width="100" height="120" id="artboard_1" />
    <clipPath id="clip_1">
      <use xlink:href="#artboard_1" clip-rule="evenodd" />
    </clipPath>
  </defs>
  <g id="Logo" clip-path="url(#clip_1)">
    <use xlink:href="#artboard_1" stroke="none" fill="#423725" />
    <g id="Group-5" transform="translate(13 8)">
      <g id="Group-4">
        <g id="Group-3">
          <path d="M0 0L10.2836 48.7464" transform="translate(8.429599 24.30024)" id="Line" fill="none" fill-rule="evenodd" stroke="#E8E1D1" stroke-width="2" stroke-linecap="round" stroke-linejoin="round" />
          <path d="M0 11.3434C0 5.0786 6.07613 0 13.5714 0C21.0667 0 27.1429 5.0786 27.1429 11.3434C27.1429 17.6082 21.0667 22.6868 13.5714 22.6868C6.07613 22.6868 0 17.6082 0 11.3434Z" transform="translate(0 7.4247713)" id="Ellipse" fill="#423725" fill-rule="evenodd" stroke="#E8E1D1" stroke-width="2" stroke-linecap="round" stroke-linejoin="round" />
          <g id="Group-2" transform="translate(27.636366 54.448208)">
            <path d="M0.493506 8.2497L0.493506 0" transform="translate(0 4.1248097)" id="Line-2" fill="none" fill-rule="evenodd" stroke="#E8E1D1" stroke-width="2" stroke-linecap="round" stroke-linejoin="round" />
            <path d="M0.493512 12.3745L0.493512 0" transform="translate(9.870155 0)" id="Line-3" fill="none" fill-rule="evenodd" stroke="#E8E1D1" stroke-width="2" stroke-linecap="round" stroke-linejoin="round" />
            <path d="M0.493515 8.2497L0.493515 0" transform="translate(19.74016 4.1248097)" id="Line-4" fill="none" fill-rule="evenodd" stroke="#E8E1D1" stroke-width="2" stroke-linecap="round" stroke-linejoin="round" />
          </g>
          <path d="M0 0.412487L38.5922 0.412487" transform="translate(18.703953 73.01014)" id="Line-6" fill="none" fill-rule="evenodd" stroke="#E8E1D1" stroke-width="2" stroke-linecap="round" stroke-linejoin="round" />
          <path d="M0 48.7464L10.2836 0" transform="translate(57.286728 24.295465)" id="Line" fill="none" fill-rule="evenodd" stroke="#E8E1D1" stroke-width="2" stroke-linecap="round" stroke-linejoin="round" />
          <path d="M0 11.3434C0 5.0786 6.07613 0 13.5714 0C21.0667 0 27.1428 5.0786 27.1428 11.3434C27.1428 17.6082 21.0667 22.6868 13.5714 22.6868C6.07613 22.6868 0 17.6082 0 11.3434Z" transform="translate(48.857143 7.4247713)" id="Ellipse" fill="#423725" fill-rule="evenodd" stroke="#E8E1D1" stroke-width="2" stroke-linecap="round" stroke-linejoin="round" />
          <path d="M0 16.4995C0 7.38707 8.83801 0 19.7402 0C30.6425 0 39.4805 7.38707 39.4805 16.4995C39.4805 25.6119 30.6425 32.999 19.7402 32.999C8.83801 32.999 0 25.6119 0 16.4995Z" transform="translate(18.259718 0)" id="Ellipse" fill="#423725" fill-rule="evenodd" stroke="#E8E1D1" stroke-width="2" stroke-linecap="round" stroke-linejoin="round" />
          <path d="M10.3112 0L38.5459 0Q38.7991 0 39.0519 0.0124203Q39.3047 0.0248405 39.5566 0.0496511Q39.8085 0.0744618 40.0589 0.111603Q40.3093 0.148744 40.5575 0.198126Q40.8058 0.247509 41.0513 0.309013Q41.2969 0.370517 41.5391 0.443996Q41.7813 0.517474 42.0197 0.60275Q42.258 0.688025 42.4918 0.784892Q42.7257 0.881758 42.9545 0.989983Q43.1833 1.09821 43.4066 1.21753Q43.6298 1.33685 43.8469 1.46699Q44.064 1.59712 44.2745 1.73775Q44.485 1.87838 44.6883 2.02916Q44.8916 2.17995 45.0873 2.34053Q45.2829 2.50111 45.4705 2.6711Q45.658 2.84109 45.837 3.02007Q46.016 3.19906 46.186 3.38661Q46.356 3.57417 46.5166 3.76984Q46.6772 3.9655 46.8279 4.16882Q46.9787 4.37213 47.1194 4.58259Q47.26 4.79306 47.3901 5.01017Q47.5202 5.22729 47.6396 5.45052Q47.7589 5.67376 47.8671 5.90258Q47.9753 6.1314 48.0722 6.36526Q48.1691 6.59912 48.2544 6.83745Q48.3396 7.07578 48.4131 7.318Q48.4866 7.56023 48.5481 7.80577Q48.6096 8.05131 48.659 8.29957Q48.7084 8.54783 48.7455 8.79821Q48.7826 9.0486 48.8075 9.30051Q48.8323 9.55241 48.8447 9.80523Q48.8571 10.0581 48.8571 10.3112L48.8571 10.3132Q48.8571 10.5663 48.8447 10.8191Q48.8323 11.0719 48.8075 11.3239Q48.7826 11.5758 48.7455 11.8261Q48.7084 12.0765 48.659 12.3248Q48.6096 12.5731 48.5481 12.8186Q48.4866 13.0641 48.4131 13.3064Q48.3396 13.5486 48.2544 13.7869Q48.1691 14.0252 48.0722 14.2591Q47.9753 14.493 47.8671 14.7218Q47.7589 14.9506 47.6396 15.1738Q47.5202 15.3971 47.3901 15.6142Q47.26 15.8313 47.1194 16.0418Q46.9787 16.2522 46.8279 16.4555Q46.6772 16.6589 46.5166 16.8545Q46.356 17.0502 46.186 17.2377Q46.016 17.4253 45.837 17.6043Q45.658 17.7833 45.4705 17.9533Q45.2829 18.1232 45.0873 18.2838Q44.8916 18.4444 44.6883 18.5952Q44.485 18.746 44.2745 18.8866Q44.064 19.0272 43.8469 19.1574Q43.6298 19.2875 43.4066 19.4068Q43.1833 19.5261 42.9545 19.6344Q42.7257 19.7426 42.4918 19.8395Q42.258 19.9363 42.0197 20.0216Q41.7813 20.1069 41.5391 20.1804Q41.2969 20.2538 41.0513 20.3153Q40.8058 20.3769 40.5575 20.4262Q40.3093 20.4756 40.0589 20.5128Q39.8085 20.5499 39.5566 20.5747Q39.3047 20.5995 39.0519 20.6119Q38.7991 20.6244 38.5459 20.6244L10.3112 20.6244Q10.0581 20.6244 9.80523 20.6119Q9.55241 20.5995 9.30051 20.5747Q9.0486 20.5499 8.79821 20.5128Q8.54783 20.4756 8.29957 20.4262Q8.05131 20.3769 7.80577 20.3153Q7.56023 20.2538 7.318 20.1804Q7.07578 20.1069 6.83745 20.0216Q6.59912 19.9363 6.36526 19.8395Q6.1314 19.7426 5.90258 19.6344Q5.67376 19.5261 5.45052 19.4068Q5.22729 19.2875 5.01017 19.1574Q4.79306 19.0272 4.58259 18.8866Q4.37213 18.746 4.16882 18.5952Q3.9655 18.4444 3.76984 18.2838Q3.57417 18.1232 3.38661 17.9533Q3.19906 17.7833 3.02007 17.6043Q2.84109 17.4253 2.6711 17.2377Q2.50111 17.0502 2.34053 16.8545Q2.17995 16.6589 2.02916 16.4555Q1.87838 16.2522 1.73775 16.0418Q1.59712 15.8313 1.46699 15.6142Q1.33685 15.3971 1.21753 15.1738Q1.09821 14.9506 0.989983 14.7218Q0.881758 14.493 0.784892 14.2591Q0.688025 14.0252 0.60275 13.7869Q0.517474 13.5486 0.443996 13.3064Q0.370517 13.0641 0.309013 12.8186Q0.247509 12.5731 0.198126 12.3248Q0.148744 12.0765 0.111603 11.8261Q0.0744618 11.5758 0.0496511 11.3239Q0.0248405 11.0719 0.0124203 10.8191Q0 10.5663 0 10.3132L0 10.3112Q0 10.0581 0.0124203 9.80523Q0.0248405 9.55241 0.0496511 9.30051Q0.0744618 9.0486 0.111603 8.79821Q0.148744 8.54783 0.198126 8.29957Q0.247509 8.05131 0.309013 7.80577Q0.370517 7.56023 0.443996 7.318Q0.517474 7.07578 0.60275 6.83745Q0.688025 6.59912 0.784892 6.36526Q0.881758 6.1314 0.989983 5.90258Q1.09821 5.67376 1.21753 5.45052Q1.33685 5.22729 1.46699 5.01017Q1.59712 4.79306 1.73775 4.58259Q1.87838 4.37213 2.02916 4.16882Q2.17995 3.9655 2.34053 3.76984Q2.50111 3.57417 2.6711 3.38661Q2.84109 3.19906 3.02007 3.02007Q3.19906 2.84109 3.38661 2.6711Q3.57417 2.50111 3.76984 2.34053Q3.9655 2.17995 4.16882 2.02916Q4.37213 1.87838 4.58259 1.73775Q4.79306 1.59712 5.01017 1.46699Q5.22729 1.33685 5.45052 1.21753Q5.67376 1.09821 5.90258 0.989983Q6.1314 0.881758 6.36526 0.784892Q6.59912 0.688025 6.83745 0.60275Q7.07578 0.517474 7.318 0.443996Q7.56023 0.370517 7.80577 0.309013Q8.05131 0.247509 8.29957 0.198126Q8.54783 0.148744 8.79821 0.111603Q9.0486 0.0744618 9.30051 0.0496511Q9.55241 0.0248405 9.80523 0.0124203Q10.0581 0 10.3112 0Z" transform="translate(13.324709 11.549651)" id="Rectangle" fill="#423725" fill-rule="evenodd" stroke="none" />
          <path d="M0 0L31.5109 0L31.5109 16.4995L0 16.4995L0 0Z" transform="translate(23.756407 23.924187)" id="Rectangle-2" fill="#423725" fill-rule="evenodd" stroke="none" />
          <path d="M0 0.412483L38.5922 0.412483" transform="translate(18.703953 66.41032)" id="Line-6" fill="none" fill-rule="evenodd" stroke="#E8E1D1" stroke-width="2" stroke-linecap="round" stroke-linejoin="round" />
          <g id="Group-3" transform="translate(2.6117933 85.21047)">
            <path d="M17.119 7.5714C17.9336 6.72825 18.3844 6.10283 19.2325 5.0476C19.5866 4.60699 20.3932 4.01999 20.7119 3.42515C20.9711 2.94154 22.4027 1.98299 22.4027 1.98299C22.4027 1.98299 23.4653 1.14008 24.0935 0.721085C25.085 0.0597332 26.4438 7.65139e-08 27.8554 7.65139e-08C34.6254 7.65139e-08 40.1135 4.35835 40.1135 9.73465C40.1135 15.111 34.6254 19.4693 27.8554 19.4693C26.7316 19.4693 23.658 20.1085 20.7119 20.3707C17.6289 20.645 14.6746 20.5392 13.7375 20.3707L8.87654 19.4693L6.12904 18.7482C6.12904 18.7482 4.62163 18.0427 3.80423 17.6069C2.98683 17.1712 2.11346 15.8639 2.11346 15.8639L0.845384 14.0612L0 10.8163L0.845384 8.65302L2.11346 7.57139L6.12904 5.94895L6.12904 5.94895L6.12904 5.94895L3.80423 9.73465L6.12904 12.2584L7.18577 12.2584C7.18577 12.2584 16.5409 8.16976 17.119 7.5714Z" id="Ellipse-2" fill="#423725" fill-rule="evenodd" stroke="#E8E1D1" stroke-width="2" />
            <path d="M17.119 7.5714C17.9336 6.72825 18.3844 6.10283 19.2325 5.0476C19.5866 4.60699 20.3932 4.01999 20.7119 3.42515C20.9711 2.94154 22.0001 2.44693 22.4027 1.98299C22.9234 1.38293 23.4653 1.14008 24.0934 0.721085C25.085 0.0597332 26.4438 7.65139e-08 27.8554 7.65139e-08C30.3669 7.65139e-08 32.7019 0.599797 34.6458 1.62885C37.942 3.37374 40.1135 6.35281 40.1135 9.73465C40.1135 15.111 34.6254 19.4693 27.8554 19.4693C26.7316 19.4693 23.658 20.1085 20.7119 20.3707C17.6289 20.645 14.6746 20.5392 13.7375 20.3707L8.87653 19.4693L6.12903 18.7482C6.12903 18.7482 4.62163 18.0427 3.80423 17.6069C2.98683 17.1712 2.11346 15.8639 2.11346 15.8639L0.845384 14.0612L0 10.8163L0.845384 8.65302L2.11346 7.57139L6.12903 5.94895L6.12903 5.94895L6.12903 5.94895L3.80423 9.73465L6.12903 12.2584L7.18576 12.2584C7.18576 12.2584 16.5409 8.16976 17.119 7.5714Z" transform="matrix(-1 0 0 1 70.589516 0)" id="Ellipse-2" fill="#423725" fill-rule="evenodd" stroke="#E8E1D1" stroke-width="2" />
            <path d="M0 7.11147C0 4.67881 2.77927 -0.72338 5.64998 0.0808543C6.26489 0.253122 6.84288 0.170797 7.26573 0.0808592C7.82745 -0.0386149 8.84563 0.426011 8.87654 0.441375C9.15032 0.577448 10.0504 1.10851 10.356 1.18082C13.7973 1.99509 16.0623 3.76584 16.0623 7.11147C16.0623 9.84611 13.6536 12.3555 6.83754 14.3232C6.83754 14.3232 6.83754 14.3232 6.83754 14.3232C6.57478 14.3991 5.80964 14.433 5.69127 14.4573C5.6063 14.4748 4.72205 14.5097 4.545 14.4573C4.25129 14.3704 0 11.094 0 7.11147Z" transform="translate(24.938883 2.2626781)" id="Ellipse-3" fill="#423725" fill-rule="evenodd" stroke="none" />
          </g>
        </g>
      </g>
    </g>
  </g>
</svg>