<?xml version="1.0" encoding="utf-8"?>
<svg width="235px" height="65px" viewbox="0 0 235 65" version="1.1" xmlns:xlink="http://www.w3.org/1999/xlink" xmlns="http://www.w3.org/2000/svg">
  <defs>
    <rect width="235" height="65" id="artboard_1" />
    <clipPath id="clip_1">
      <use xlink:href="#artboard_1" clip-rule="evenodd" />
    </clipPath>
  </defs>
  <g id="Logo" clip-path="url(#clip_1)">
    <use xlink:href="#artboard_1" stroke="none" fill="#423725" />
    <g id="Group-5">
      <g id="Group-4">
        <g id="Group-3" transform="translate(120.93328 2.5813172)">
          <path d="M0 0L4.5972 18.9125" transform="translate(3.7683494 9.427922)" id="Line" fill="none" fill-rule="evenodd" stroke="#E8E1D1" stroke-width="2" stroke-linecap="round" stroke-linejoin="round" />
          <path d="M0 4.40096C0 1.97038 2.71628 0 6.06697 0C9.41767 0 12.1339 1.97038 12.1339 4.40096C12.1339 6.83155 9.41767 8.80193 6.06697 8.80193C2.71628 8.80193 0 6.83155 0 4.40096Z" transform="translate(0 2.880635)" id="Ellipse" fill="#423725" fill-rule="evenodd" stroke="#E8E1D1" stroke-width="2" stroke-linecap="round" stroke-linejoin="round" />
          <g id="Group-2" transform="translate(12.354569 21.12463)">
            <path d="M0.220617 3.2007L0.220617 0" transform="translate(0 1.6003493)" id="Line-2" fill="none" fill-rule="evenodd" stroke="#E8E1D1" stroke-width="2" stroke-linecap="round" stroke-linejoin="round" />
            <path d="M0.220617 4.80105L0.220617 0" transform="translate(4.412347 0)" id="Line-3" fill="none" fill-rule="evenodd" stroke="#E8E1D1" stroke-width="2" stroke-linecap="round" stroke-linejoin="round" />
            <path d="M0.220617 3.2007L0.220617 0" transform="translate(8.824662 1.6003493)" id="Line-4" fill="none" fill-rule="evenodd" stroke="#E8E1D1" stroke-width="2" stroke-linecap="round" stroke-linejoin="round" />
          </g>
          <path d="M0 0.160034L17.2523 0.160034" transform="translate(8.361405 28.326214)" id="Line-6" fill="none" fill-rule="evenodd" stroke="#E8E1D1" stroke-width="2" stroke-linecap="round" stroke-linejoin="round" />
          <path d="M0 18.9125L4.5972 0" transform="translate(25.60946 9.426063)" id="Line" fill="none" fill-rule="evenodd" stroke="#E8E1D1" stroke-width="2" stroke-linecap="round" stroke-linejoin="round" />
          <path d="M0 4.40096C0 1.97038 2.71628 0 6.06697 0C9.41767 0 12.1339 1.97038 12.1339 4.40096C12.1339 6.83155 9.41767 8.80193 6.06697 8.80193C2.71628 8.80193 0 6.83155 0 4.40096Z" transform="translate(21.84111 2.880635)" id="Ellipse" fill="#423725" fill-rule="evenodd" stroke="#E8E1D1" stroke-width="2" stroke-linecap="round" stroke-linejoin="round" />
          <path d="M0 6.4014C0 2.86601 3.95095 0 8.82469 0C13.6984 0 17.6494 2.86601 17.6494 6.4014C17.6494 9.9368 13.6984 12.8028 8.82469 12.8028C3.95095 12.8028 0 9.9368 0 6.4014Z" transform="translate(8.162829 0)" id="Ellipse" fill="#423725" fill-rule="evenodd" stroke="#E8E1D1" stroke-width="2" stroke-linecap="round" stroke-linejoin="round" />
          <path d="M3.99988 0L17.8412 0Q18.0377 0 18.2333 0.0192605Q18.4288 0.038521 18.6216 0.0768565Q18.8143 0.115192 19.0023 0.172233Q19.1904 0.229275 19.3719 0.304473Q19.5534 0.37967 19.7267 0.4723Q19.9 0.564931 20.0634 0.674101Q20.2268 0.783271 20.3787 0.90793Q20.5306 1.03259 20.6696 1.17154Q20.8085 1.31048 20.9332 1.46238Q21.0578 1.61428 21.167 1.77766Q21.2762 1.94105 21.3688 2.11435Q21.4614 2.28765 21.5366 2.46919Q21.6118 2.65073 21.6689 2.83877Q21.7259 3.02681 21.7642 3.21954Q21.8026 3.41227 21.8218 3.60782Q21.8411 3.80338 21.8411 3.99988L21.8411 4.00188Q21.8411 4.19838 21.8218 4.39393Q21.8026 4.58949 21.7642 4.78221Q21.7259 4.97494 21.6689 5.16298Q21.6118 5.35102 21.5366 5.53256Q21.4614 5.71411 21.3688 5.88741Q21.2762 6.06071 21.167 6.22409Q21.0578 6.38748 20.9332 6.53937Q20.8085 6.69127 20.6696 6.83022Q20.5306 6.96916 20.3787 7.09382Q20.2268 7.21848 20.0634 7.32765Q19.9 7.43682 19.7267 7.52945Q19.5534 7.62208 19.3719 7.69728Q19.1904 7.77248 19.0023 7.82952Q18.8143 7.88656 18.6216 7.9249Q18.4288 7.96323 18.2333 7.98249Q18.0377 8.00175 17.8412 8.00175L3.99988 8.00175Q3.80338 8.00175 3.60782 7.98249Q3.41227 7.96323 3.21954 7.9249Q3.02681 7.88656 2.83877 7.82952Q2.65073 7.77248 2.46919 7.69728Q2.28765 7.62208 2.11435 7.52945Q1.94105 7.43682 1.77766 7.32765Q1.61428 7.21848 1.46238 7.09382Q1.31048 6.96916 1.17154 6.83022Q1.03259 6.69127 0.90793 6.53937Q0.783271 6.38747 0.674101 6.22409Q0.564931 6.0607 0.4723 5.88741Q0.37967 5.71411 0.304473 5.53256Q0.229275 5.35102 0.172233 5.16298Q0.115192 4.97494 0.0768565 4.78221Q0.038521 4.58949 0.0192605 4.39393Q0 4.19838 0 4.00188L0 3.99988Q0 3.80338 0.0192605 3.60782Q0.038521 3.41227 0.0768565 3.21954Q0.115192 3.02681 0.172233 2.83877Q0.229275 2.65073 0.304473 2.46919Q0.37967 2.28765 0.4723 2.11435Q0.564931 1.94105 0.674101 1.77766Q0.783271 1.61428 0.90793 1.46238Q1.03259 1.31048 1.17154 1.17154Q1.31048 1.03259 1.46238 0.90793Q1.61428 0.783271 1.77766 0.674101Q1.94105 0.564931 2.11435 0.4723Q2.28765 0.37967 2.46919 0.304473Q2.65073 0.229275 2.83877 0.172233Q3.02681 0.115192 3.21954 0.0768565Q3.41227 0.038521 3.60782 0.0192605Q3.80338 0 3.99988 0Z" transform="translate(5.9566793 4.480985)" id="Rectangle" fill="#423725" fill-rule="evenodd" stroke="none" />
          <path d="M0 0L14.0866 0L14.0866 6.4014L0 6.4014L0 0Z" transform="translate(10.6200485 9.282017)" id="Rectangle-2" fill="#423725" fill-rule="evenodd" stroke="none" />
          <path d="M0 0.160033L17.2523 0.160033" transform="translate(8.361405 25.765652)" id="Line-6" fill="none" fill-rule="evenodd" stroke="#E8E1D1" stroke-width="2" stroke-linecap="round" stroke-linejoin="round" />
          <g id="Group-3" transform="translate(1.1675729 33.05965)">
            <path d="M7.6529 2.93753C8.01706 2.61041 8.21855 2.36776 8.5977 1.95836C8.75601 1.78741 9.11657 1.55967 9.25906 1.32888C9.37491 1.14125 10.0149 0.769354 10.0149 0.769354C10.0149 0.769354 10.4899 0.442327 10.7707 0.279765C11.214 0.0231751 11.8214 2.96857e-08 12.4525 2.96857e-08C15.4789 2.96857e-08 17.9323 1.69094 17.9323 3.77683C17.9323 5.86272 15.4789 7.55366 12.4525 7.55366C11.9501 7.55366 10.5761 7.80166 9.25906 7.90336C7.88084 8.0098 6.56015 7.96877 6.14121 7.90337L3.96817 7.55366L2.73992 7.27389C2.73992 7.27389 2.06605 7.00016 1.70064 6.8311C1.33523 6.66203 0.944802 6.15483 0.944802 6.15483L0.377921 5.45543L0 4.19648L0.377921 3.35718L0.944802 2.93753L2.73992 2.30806L2.73992 2.30806L2.73992 2.30806L1.70064 3.77683L2.73992 4.75601L3.21233 4.75601C3.21233 4.75601 7.39446 3.16969 7.6529 2.93753Z" id="Ellipse-2" fill="#423725" fill-rule="evenodd" stroke="#E8E1D1" stroke-width="2" />
            <path d="M7.6529 2.93753C8.01706 2.61041 8.21856 2.36776 8.5977 1.95836C8.75601 1.78741 9.11657 1.55967 9.25906 1.32888C9.37491 1.14125 9.83492 0.949353 10.0149 0.769354C10.2477 0.536545 10.4899 0.442327 10.7707 0.279765C11.214 0.0231751 11.8214 2.96857e-08 12.4525 2.96857e-08C13.5752 2.96857e-08 14.6191 0.232708 15.4881 0.631958C16.9616 1.30894 17.9323 2.46475 17.9323 3.77683C17.9323 5.86272 15.4789 7.55366 12.4525 7.55366C11.9501 7.55366 10.5761 7.80166 9.25906 7.90336C7.88084 8.0098 6.56015 7.96877 6.14121 7.90337L3.96817 7.55366L2.73993 7.27389C2.73993 7.27389 2.06606 7.00016 1.70064 6.8311C1.33523 6.66203 0.944802 6.15483 0.944802 6.15483L0.377921 5.45543L0 4.19648L0.377921 3.35718L0.944802 2.93753L2.73993 2.30806L2.73993 2.30806L2.73993 2.30806L1.70064 3.77683L2.73993 4.75601L3.21233 4.75601C3.21233 4.75601 7.39446 3.16969 7.6529 2.93753Z" transform="matrix(-1 0 0 1 31.556362 0)" id="Ellipse-2" fill="#423725" fill-rule="evenodd" stroke="#E8E1D1" stroke-width="2" />
            <path d="M0 2.75909C0 1.81527 1.24245 -0.280655 2.52577 0.0313697C2.80066 0.0982056 3.05904 0.0662653 3.24808 0.0313716C3.49919 -0.0149817 3.95435 0.165283 3.96817 0.171244C4.09056 0.224037 4.49291 0.430076 4.62953 0.458132C6.16795 0.774049 7.18049 1.46106 7.18049 2.75909C7.18049 3.82007 6.1037 4.79368 3.05666 5.55708C3.05666 5.55708 3.05666 5.55708 3.05666 5.55708C2.93919 5.58651 2.59715 5.59968 2.54423 5.60912C2.50624 5.6159 2.11095 5.62945 2.0318 5.60913C1.9005 5.57541 0 4.30422 0 2.75909Z" transform="translate(11.148676 0.8778671)" id="Ellipse-3" fill="#423725" fill-rule="evenodd" stroke="none" />
          </g>
        </g>
        <g id="Cooking-" fill="#E8E1D1" transform="translate(0 2.4540336)">
          <path d="M70.545 12.795Q69.84 13.515 69.84 14.535Q69.84 15.585 70.545 16.305Q71.25 17.025 72.39 17.025Q73.53 17.025 74.235 16.305Q74.94 15.585 74.94 14.535Q74.94 13.515 74.235 12.795Q73.53 12.075 72.39 12.075Q71.25 12.075 70.545 12.795ZM62.25 25.695L67.44 30.735Q67.29 31.995 66.675 32.67Q66.06 33.345 64.92 33.345Q64.05 33.345 63.39 32.925Q62.73 32.505 61.92 31.545L58.35 27.315L58.35 33.075Q58.05 33.165 57.51 33.24Q56.97 33.315 56.31 33.315Q54.96 33.315 54.36 32.88Q53.76 32.445 53.76 31.185L53.76 13.575Q54.09 13.485 54.63 13.395Q55.17 13.305 55.83 13.305Q57.18 13.305 57.765 13.755Q58.35 14.205 58.35 15.465L58.35 23.955L63.78 18.435Q65.19 18.435 66.03 19.065Q66.87 19.695 66.87 20.625Q66.87 21.435 66.315 22.05Q65.76 22.665 64.59 23.685L62.25 25.695ZM16.17 17.445Q16.17 18.135 15.81 18.66Q15.45 19.185 14.97 19.485Q14.19 18.975 13.275 18.585Q12.36 18.195 11.1 18.195Q8.7 18.195 7.35 19.71Q6 21.225 6 24.015Q6 26.895 7.425 28.35Q8.85 29.805 11.34 29.805Q12.63 29.805 13.545 29.46Q14.46 29.115 15.24 28.635Q15.69 28.995 15.975 29.55Q16.26 30.105 16.26 30.795Q16.26 31.395 15.945 31.92Q15.63 32.445 14.85 32.805C14.45 33.005 13.91 33.19 13.23 33.36Q12.21 33.615 10.71 33.615Q8.7 33.615 6.96 33.045Q5.22 32.475 3.93 31.305Q2.64 30.135 1.905 28.32Q1.17 26.505 1.17 24.015Q1.17 21.675 1.905 19.875Q2.64 18.075 3.9 16.86Q5.16 15.645 6.84 15.015Q8.52 14.385 10.44 14.385Q13.17 14.385 14.67 15.255Q16.17 16.125 16.17 17.445ZM33.57 25.875Q33.57 27.645 33.03 29.07Q32.49 30.495 31.485 31.485Q30.48 32.475 29.07 33.015Q27.66 33.555 25.92 33.555Q24.18 33.555 22.755 33.03Q21.33 32.505 20.325 31.515Q19.32 30.525 18.78 29.1Q18.24 27.675 18.24 25.875Q18.24 24.135 18.795 22.71Q19.35 21.285 20.355 20.295Q21.36 19.305 22.785 18.765Q24.21 18.225 25.92 18.225Q27.63 18.225 29.04 18.765Q30.45 19.305 31.455 20.31Q32.46 21.315 33.015 22.725Q33.57 24.135 33.57 25.875ZM50.43 29.07Q50.97 27.645 50.97 25.875Q50.97 24.135 50.415 22.725Q49.86 21.315 48.855 20.31Q47.85 19.305 46.44 18.765Q45.03 18.225 43.32 18.225Q41.61 18.225 40.185 18.765Q38.76 19.305 37.755 20.295Q36.75 21.285 36.195 22.71Q35.64 24.135 35.64 25.875Q35.64 27.675 36.18 29.1Q36.72 30.525 37.725 31.515Q38.73 32.505 40.155 33.03Q41.58 33.555 43.32 33.555Q45.06 33.555 46.47 33.015Q47.88 32.475 48.885 31.485Q49.89 30.495 50.43 29.07ZM87.51 23.895Q87.51 22.845 86.88 22.335Q86.25 21.825 85.2 21.825Q84.48 21.825 83.88 22.005Q83.28 22.185 82.77 22.455L82.77 33.075Q82.47 33.165 81.93 33.24Q81.39 33.315 80.73 33.315Q79.38 33.315 78.78 32.88Q78.18 32.445 78.18 31.185L78.18 21.915Q78.18 21.135 78.51 20.655Q78.84 20.175 79.44 19.755Q80.4 19.065 81.915 18.645Q83.43 18.225 85.26 18.225Q88.53 18.225 90.315 19.665Q92.1 21.105 92.1 23.775L92.1 33.075Q91.77 33.165 91.23 33.24Q90.69 33.315 90.03 33.315Q88.68 33.315 88.095 32.88Q87.51 32.445 87.51 31.185L87.51 23.895ZM103.2 32.37Q103.95 32.205 104.55 31.935L104.55 32.925Q104.55 34.275 103.575 34.86Q102.6 35.445 100.92 35.445Q99.69 35.445 98.595 35.1Q97.5 34.755 96.66 34.275Q96.33 34.515 96.06 35.04Q95.79 35.565 95.79 36.195Q95.79 37.395 96.81 38.115Q97.5 38.535 98.685 38.805Q99.87 39.075 101.49 39.075Q103.05 39.075 104.4 38.715Q105.75 38.355 106.755 37.62Q107.76 36.885 108.33 35.745Q108.9 34.605 108.9 33.045L108.9 21.735Q108.9 20.985 108.57 20.49Q108.24 19.995 107.67 19.605Q106.89 19.095 105.495 18.66Q104.1 18.225 102.42 18.225Q100.71 18.225 99.315 18.69Q97.92 19.155 96.915 20.07Q95.91 20.985 95.37 22.335Q94.83 23.685 94.83 25.455Q94.83 27.405 95.37 28.755Q95.91 30.105 96.81 30.945Q97.71 31.785 98.925 32.16Q100.14 32.535 101.49 32.535Q102.45 32.535 103.2 32.37ZM73.83 33.24Q74.37 33.165 74.67 33.075L74.67 20.745Q74.67 19.485 74.085 19.035Q73.5 18.585 72.15 18.585Q71.49 18.585 70.95 18.675Q70.41 18.765 70.11 18.855L70.11 31.185Q70.11 32.445 70.695 32.88Q71.28 33.315 72.63 33.315Q73.29 33.315 73.83 33.24ZM25.92 21.825Q24.51 21.825 23.73 22.875Q22.95 23.925 22.95 25.875Q22.95 27.885 23.715 28.92Q24.48 29.955 25.92 29.955Q27.36 29.955 28.125 28.905Q28.89 27.855 28.89 25.875Q28.89 23.955 28.11 22.89Q27.33 21.825 25.92 21.825ZM41.13 22.875Q41.91 21.825 43.32 21.825Q44.73 21.825 45.51 22.89Q46.29 23.955 46.29 25.875Q46.29 27.855 45.525 28.905Q44.76 29.955 43.32 29.955Q41.88 29.955 41.115 28.92Q40.35 27.885 40.35 25.875Q40.35 23.925 41.13 22.875ZM103.545 28.905Q103.02 29.085 102.3 29.085Q101.67 29.085 101.145 28.905Q100.62 28.725 100.23 28.305Q99.84 27.885 99.615 27.195Q99.39 26.505 99.39 25.485Q99.39 23.595 100.275 22.71Q101.16 21.825 102.6 21.825Q103.26 21.825 103.695 21.975Q104.13 22.125 104.49 22.275L104.49 28.425Q104.07 28.725 103.545 28.905Z" />
        </g>
        <g id="Chief" fill="#E8E1D1" transform="translate(161.2102 0)">
          <path d="M36.855 14.1929Q36.15 14.9129 36.15 15.9329Q36.15 16.9829 36.855 17.7029Q37.56 18.4229 38.7 18.4229Q39.84 18.4229 40.545 17.7029Q41.25 16.9829 41.25 15.9329Q41.25 14.9129 40.545 14.1929Q39.84 13.4729 38.7 13.4729Q37.56 13.4729 36.855 14.1929ZM70.32 21.1229L65.22 21.1229L65.22 19.9829Q65.22 18.8129 65.94 18.3179Q66.66 17.8229 68.04 17.8229Q68.85 17.8229 69.495 17.9429Q70.14 18.0629 70.71 18.2429Q71.01 18.0029 71.235 17.5679Q71.46 17.1329 71.46 16.5629Q71.46 15.3029 70.425 14.7479Q69.39 14.1929 67.26 14.1929Q65.91 14.1929 64.74 14.5229Q63.57 14.8529 62.7 15.5279Q61.83 16.2029 61.335 17.2829Q60.84 18.3629 60.84 19.8329L60.84 32.5829Q60.84 33.8429 61.44 34.2779Q62.04 34.7129 63.39 34.7129Q64.05 34.7129 64.59 34.6379Q65.13 34.5629 65.43 34.4729L65.43 24.6629L69.24 24.6629Q69.93 24.6629 70.365 24.2429Q70.8 23.8229 70.8 22.8629Q70.8 22.3229 70.635 21.8729Q70.47 21.4229 70.32 21.1229ZM23.55 34.4729Q23.25 34.5629 22.71 34.6379Q22.17 34.7129 21.51 34.7129Q20.16 34.7129 19.56 34.2779Q18.96 33.8429 18.96 32.5829L18.96 14.9729Q19.29 14.8829 19.83 14.7929Q20.37 14.7029 21.03 14.7029Q22.38 14.7029 22.965 15.1529Q23.55 15.6029 23.55 16.8629L23.55 20.3129Q24.18 20.0129 24.975 19.8179Q25.77 19.6229 26.7 19.6229Q29.58 19.6229 31.215 21.0779Q32.85 22.5329 32.85 25.4429L32.85 34.4729Q32.55 34.5629 32.01 34.6379Q31.47 34.7129 30.81 34.7129Q29.46 34.7129 28.86 34.2779Q28.26 33.8429 28.26 32.5829L28.26 25.7129Q28.26 24.3629 27.585 23.7929Q26.91 23.2229 25.86 23.2229Q25.17 23.2229 24.6 23.4179Q24.03 23.6129 23.55 23.8829L23.55 34.4729ZM16.17 18.8429Q16.17 19.5329 15.81 20.0579Q15.45 20.5829 14.97 20.8829Q14.19 20.3729 13.275 19.9829Q12.36 19.5929 11.1 19.5929Q8.7 19.5929 7.35 21.1079Q6 22.6229 6 25.4129Q6 28.2929 7.425 29.7479Q8.85 31.2029 11.34 31.2029Q12.63 31.2029 13.545 30.8579Q14.46 30.5129 15.24 30.0329Q15.69 30.3929 15.975 30.9479Q16.26 31.5029 16.26 32.1929Q16.26 32.7929 15.945 33.3179Q15.63 33.8429 14.85 34.2029C14.45 34.4029 13.91 34.5879 13.23 34.7579Q12.21 35.0129 10.71 35.0129Q8.7 35.0129 6.96 34.4429Q5.22 33.8729 3.93 32.7029Q2.64 31.5329 1.905 29.7179Q1.17 27.9029 1.17 25.4129Q1.17 23.0729 1.905 21.2729Q2.64 19.4729 3.9 18.2579Q5.16 17.0429 6.84 16.4129Q8.52 15.7829 10.44 15.7829Q13.17 15.7829 14.67 16.6529Q16.17 17.5229 16.17 18.8429ZM48.39 29.1929Q48.81 30.4529 49.86 30.9779Q50.91 31.5029 52.29 31.5029Q53.55 31.5029 54.66 31.1579Q55.77 30.8129 56.46 30.3929Q56.91 30.6929 57.21 31.1729Q57.51 31.6529 57.51 32.2229Q57.51 32.9129 57.09 33.4229Q56.67 33.9329 55.935 34.2779Q55.2 34.6229 54.195 34.7879Q53.19 34.9529 51.99 34.9529Q50.22 34.9529 48.72 34.4579Q47.22 33.9629 46.14 32.9879Q45.06 32.0129 44.445 30.5429Q43.83 29.0729 43.83 27.0929Q43.83 25.1729 44.445 23.7629Q45.06 22.3529 46.095 21.4229Q47.13 20.4929 48.465 20.0579Q49.8 19.6229 51.21 19.6229Q52.74 19.6229 54.015 20.0879Q55.29 20.5529 56.205 21.3929Q57.12 22.2329 57.63 23.4029Q58.14 24.5729 58.14 25.9529Q58.14 26.9129 57.63 27.3929Q57.12 27.8729 56.19 28.0229L48.39 29.1929ZM40.14 34.6379Q40.68 34.5629 40.98 34.4729L40.98 22.1429Q40.98 20.8829 40.395 20.4329Q39.81 19.9829 38.46 19.9829Q37.8 19.9829 37.26 20.0729Q36.72 20.1629 36.42 20.2529L36.42 32.5829Q36.42 33.8429 37.005 34.2779Q37.59 34.7129 38.94 34.7129Q39.6 34.7129 40.14 34.6379ZM51.24 23.0129Q49.95 23.0129 49.095 23.8079Q48.24 24.6029 48.09 26.1029L53.82 25.1729Q53.76 24.3929 53.13 23.7029Q52.5 23.0129 51.24 23.0129Z" />
        </g>
      </g>
      <g id="Bon-appétit-les-gourmands-!" fill="#C1BAAB" transform="translate(27.572319 47.61447)">
        <path d="M77.462 13.421L79.268 13.421L79.268 13.253Q79.03 12.553 79.03 11.041L79.016 5.791Q79.016 3.509 79.058 3.103L78.974 2.963L77.056 3.299L77.056 3.467Q77.7 4.083 77.7 5.203L77.7 11.041Q77.7 12.553 77.462 13.253L77.462 13.421ZM154.518 12.588Q155.232 13.575 156.688 13.575Q157.682 13.575 158.76 12.525Q158.97 13.323 159.11 13.673L160.636 13.309L160.608 13.169Q160.3 12.959 160.104 12.392Q159.908 11.825 159.908 11.195L159.908 4.265Q159.908 3.509 159.95 3.103L159.866 2.963L157.948 3.299L157.948 3.467Q158.592 4.083 158.592 5.203L158.592 6.799Q157.822 6.533 157.038 6.533Q155.638 6.533 154.721 7.569Q153.804 8.605 153.804 10.103Q153.804 11.601 154.518 12.588ZM55.104 6.001Q56.35 5.315 57.722 3.985Q57.372 3.411 56.77 3.173Q56.014 4.517 54.782 5.637L55.104 6.001ZM172.06 10.341Q172.06 10.971 172.046 11.083L173.04 10.901Q173.292 4.195 173.376 3.565L173.292 3.425L171.374 3.761L171.374 3.901Q171.808 4.209 171.906 5.189Q171.92 5.399 171.934 5.602Q171.948 5.805 171.962 6.078Q171.976 6.351 171.99 6.771Q172.004 7.191 172.032 8.451Q172.06 9.711 172.06 10.341ZM67.06 4.321Q67.06 3.677 66.864 3.509Q66.738 3.439 66.668 3.439Q66.052 3.439 65.38 3.663L65.268 3.761L65.268 3.901Q65.268 4.503 65.478 4.867L65.604 4.923Q66.374 4.853 66.934 4.699L67.046 4.601Q67.06 4.475 67.06 4.321ZM2.38 3.649L4.648 3.621Q7.644 3.621 7.644 5.581Q7.644 6.365 7.252 6.918Q6.86 7.471 6.286 7.779Q6.888 7.891 7.504 8.381Q7.868 8.647 8.085 9.165Q8.302 9.683 8.302 10.369Q8.302 11.419 7.798 12.119Q7.294 12.819 6.489 13.134Q5.684 13.449 4.48 13.449L2.814 13.379L1.512 13.421L1.512 13.323Q1.778 12.609 1.778 11.321L1.778 5.861Q1.778 4.461 1.554 3.719L1.554 3.621L2.38 3.649ZM3.22 7.667L4.326 7.667Q6.23 7.667 6.23 5.973Q6.23 5.091 5.761 4.692Q5.292 4.293 4.487 4.293Q3.682 4.293 3.248 4.335Q3.22 4.545 3.22 7.667ZM61.992 11.853Q61.992 12.595 62.44 12.595Q62.818 12.595 63.714 12.147L64.008 12.637Q63.56 12.945 62.888 13.26Q62.216 13.575 61.656 13.575Q61.096 13.575 60.886 13.225Q60.676 12.875 60.676 12.217L60.676 7.499L59.416 7.569L59.752 6.659Q60.004 6.687 60.648 6.715Q60.62 6.015 60.564 5.455L61.992 5.091L61.992 6.701Q62.748 6.673 64.05 6.533L63.658 7.625Q62.902 7.513 61.992 7.485L61.992 11.853ZM70.868 11.853Q70.868 12.595 71.316 12.595Q71.694 12.595 72.59 12.147L72.884 12.637Q72.436 12.945 71.764 13.26Q71.092 13.575 70.532 13.575Q69.972 13.575 69.762 13.225Q69.552 12.875 69.552 12.217L69.552 7.499L68.292 7.569L68.628 6.659Q68.88 6.687 69.524 6.715Q69.496 6.015 69.44 5.455L70.868 5.091L70.868 6.701Q71.624 6.673 72.926 6.533L72.534 7.625Q71.778 7.513 70.868 7.485L70.868 11.853ZM23.835 7.177Q23.282 6.533 22.274 6.533Q21.868 6.533 21.42 6.722Q20.972 6.911 20.685 7.107Q20.398 7.303 19.88 7.709Q19.824 7.177 19.712 6.659L19.628 6.519L17.794 6.953L17.808 7.121Q18.13 7.317 18.375 7.898Q18.62 8.479 18.62 9.081L18.62 11.461Q18.62 12.623 18.382 13.323L18.382 13.421L20.342 13.421L20.342 13.323Q19.936 12.399 19.936 11.041L19.936 8.395Q21.098 7.681 21.84 7.681Q22.582 7.681 22.827 8.094Q23.072 8.507 23.072 9.319L23.072 11.461Q23.072 12.623 22.834 13.323L22.834 13.421L24.808 13.421L24.808 13.323Q24.388 12.371 24.388 11.041L24.388 9.025Q24.388 7.821 23.835 7.177ZM37.198 9.025L37.198 14.821Q37.198 16.305 37.156 16.865L39.088 16.655L39.088 16.585Q38.542 15.913 38.514 14.233L38.514 13.281Q39.41 13.589 40.222 13.589Q41.454 13.589 42.42 12.434Q43.386 11.279 43.386 9.655Q43.386 8.353 42.651 7.443Q41.916 6.533 40.761 6.533Q39.606 6.533 38.444 7.569Q38.444 6.981 38.472 6.659L38.388 6.519L36.47 6.967L36.484 7.135Q36.806 7.331 37.002 7.87Q37.198 8.409 37.198 9.025ZM45.43 14.821L45.43 9.025Q45.43 8.409 45.234 7.87Q45.038 7.331 44.716 7.135L44.702 6.967L46.62 6.519L46.704 6.659Q46.676 6.981 46.676 7.569Q47.838 6.533 48.993 6.533Q50.148 6.533 50.883 7.443Q51.618 8.353 51.618 9.655Q51.618 11.279 50.652 12.434Q49.686 13.589 48.454 13.589Q47.642 13.589 46.746 13.281L46.746 14.233Q46.774 15.913 47.32 16.585L47.32 16.655L45.388 16.865Q45.43 16.305 45.43 14.821ZM65.688 8.759L65.688 11.475Q65.688 12.665 65.464 13.323L65.464 13.421L67.354 13.421L67.354 13.323Q67.004 12.525 67.004 11.125L67.004 7.821Q67.004 7.065 67.046 6.659L66.962 6.519L64.988 6.855L64.988 7.023Q65.688 7.513 65.688 8.759ZM125.454 6.631Q125.244 6.533 124.81 6.533Q123.62 6.533 122.78 7.401Q122.64 6.897 122.416 6.519L120.764 6.953L120.778 7.121Q121.1 7.317 121.345 7.898Q121.59 8.479 121.59 9.081L121.59 11.461Q121.59 12.623 121.352 13.323L121.352 13.421L123.312 13.421L123.312 13.323Q122.906 12.399 122.906 11.041L122.906 8.045Q123.34 7.891 123.774 7.891Q124.572 7.891 125.202 8.297Q125.454 7.625 125.454 6.799L125.454 6.631ZM132.244 8.927L132.244 11.461Q132.244 12.581 132.454 13.323L132.454 13.421L130.718 13.421L130.718 13.323Q130.928 12.581 130.928 11.461L130.928 9.221Q130.928 8.423 130.718 8.052Q130.508 7.681 129.878 7.681Q129.248 7.681 128.184 8.395L128.184 11.041Q128.184 12.399 128.59 13.323L128.59 13.421L126.63 13.421L126.63 13.323Q126.868 12.623 126.868 11.461L126.868 9.081Q126.868 8.479 126.623 7.898Q126.378 7.317 126.056 7.121L126.042 6.953L127.876 6.519L127.96 6.659Q128.072 7.177 128.128 7.709Q128.632 7.275 128.849 7.1Q129.066 6.925 129.465 6.729Q129.864 6.533 130.214 6.533Q131.656 6.533 132.076 7.779Q133.518 6.533 134.33 6.533Q135.31 6.533 135.856 7.177Q136.402 7.821 136.402 9.025L136.402 11.041Q136.402 12.371 136.822 13.323L136.822 13.421L134.848 13.421L134.848 13.323Q135.086 12.623 135.086 11.461L135.086 9.319Q135.086 7.681 134.064 7.681Q133.21 7.681 132.216 8.409Q132.244 8.745 132.244 8.927ZM149.814 6.533Q150.822 6.533 151.375 7.177Q151.928 7.821 151.928 9.025L151.928 11.041Q151.928 12.371 152.348 13.323L152.348 13.421L150.374 13.421L150.374 13.323Q150.612 12.623 150.612 11.461L150.612 9.319Q150.612 8.507 150.367 8.094Q150.122 7.681 149.38 7.681Q148.638 7.681 147.476 8.395L147.476 11.041Q147.476 12.399 147.882 13.323L147.882 13.421L145.922 13.421L145.922 13.323Q146.16 12.623 146.16 11.461L146.16 9.081Q146.16 8.479 145.915 7.898Q145.67 7.317 145.348 7.121L145.334 6.953L147.168 6.519L147.252 6.659Q147.364 7.177 147.42 7.709Q147.938 7.303 148.225 7.107Q148.512 6.911 148.96 6.722Q149.408 6.533 149.814 6.533ZM13.034 13.589Q11.564 13.589 10.71 12.658Q9.856 11.727 9.856 10.222Q9.856 8.717 10.85 7.625Q11.844 6.533 13.349 6.533Q14.854 6.533 15.673 7.443Q16.492 8.353 16.492 9.879Q16.492 11.405 15.498 12.497Q14.504 13.589 13.034 13.589ZM33.572 12.637Q32.718 13.575 31.647 13.575Q30.576 13.575 29.967 13.113Q29.358 12.651 29.358 11.622Q29.358 10.593 30.079 10.145Q30.8 9.697 32.116 9.697L33.348 9.739L33.348 8.941Q33.348 8.199 32.984 7.737Q32.62 7.275 31.878 7.275Q31.332 7.289 30.128 8.325Q29.722 7.807 29.554 6.981Q30.94 6.533 32.102 6.533Q33.264 6.533 33.964 7.135Q34.664 7.737 34.664 8.843L34.664 11.195Q34.678 11.825 34.867 12.364Q35.056 12.903 35.364 13.113L35.392 13.253L33.894 13.617Q33.712 13.169 33.572 12.637ZM53.69 12.665Q54.516 13.575 55.986 13.575Q56.56 13.575 57.449 13.085Q58.338 12.595 58.604 12.329L58.254 11.797Q57.778 12.077 57.162 12.28Q56.546 12.483 56.21 12.483Q55.356 12.483 54.852 11.895Q54.348 11.307 54.348 10.131L58.072 10.131L58.59 9.627Q58.59 6.533 56.084 6.533Q54.712 6.533 53.788 7.653Q52.864 8.773 52.864 10.264Q52.864 11.755 53.69 12.665ZM83.79 13.575Q82.32 13.575 81.494 12.665Q80.668 11.755 80.668 10.264Q80.668 8.773 81.592 7.653Q82.516 6.533 83.888 6.533Q86.394 6.533 86.394 9.627L85.876 10.131L82.152 10.131Q82.152 11.307 82.656 11.895Q83.16 12.483 84.014 12.483Q84.35 12.483 84.966 12.28Q85.582 12.077 86.058 11.797L86.408 12.329Q86.142 12.595 85.253 13.085Q84.364 13.575 83.79 13.575ZM88.97 8.108Q88.97 7.667 89.222 7.415Q89.544 7.247 90.006 7.247Q91.084 7.247 92.078 8.241Q92.442 7.625 92.568 7.009Q91.49 6.533 90.37 6.533Q89.25 6.533 88.515 7.058Q87.78 7.583 87.78 8.563Q87.78 9.235 88.165 9.655Q88.55 10.075 89.096 10.271Q89.642 10.467 90.188 10.621Q90.734 10.775 91.119 11.048Q91.504 11.321 91.504 11.818Q91.504 12.315 91.168 12.609Q90.818 12.791 90.37 12.791Q89.334 12.791 88.074 11.643Q87.696 12.203 87.654 12.917Q88.648 13.575 89.929 13.575Q91.21 13.575 91.994 13.029Q92.778 12.483 92.778 11.419Q92.778 10.817 92.498 10.397Q92.218 9.977 91.791 9.788Q91.364 9.599 90.874 9.431Q90.384 9.263 89.957 9.151Q89.53 9.039 89.25 8.794Q88.97 8.549 88.97 8.108ZM105.252 12.658Q106.106 13.589 107.576 13.589Q109.046 13.589 110.04 12.497Q111.034 11.405 111.034 9.879Q111.034 8.353 110.215 7.443Q109.396 6.533 107.891 6.533Q106.386 6.533 105.392 7.625Q104.398 8.717 104.398 10.222Q104.398 11.727 105.252 12.658ZM140.511 13.575Q141.582 13.575 142.436 12.637Q142.576 13.169 142.758 13.617L144.256 13.253L144.228 13.113Q143.92 12.903 143.731 12.364Q143.542 11.825 143.528 11.195L143.528 8.843Q143.528 7.737 142.828 7.135Q142.128 6.533 140.966 6.533Q139.804 6.533 138.418 6.981Q138.586 7.807 138.992 8.325Q140.196 7.289 140.742 7.275Q141.484 7.275 141.848 7.737Q142.212 8.199 142.212 8.941L142.212 9.739L140.98 9.697Q139.664 9.697 138.943 10.145Q138.222 10.593 138.222 11.622Q138.222 12.651 138.831 13.113Q139.44 13.575 140.511 13.575ZM163.366 7.415Q163.114 7.667 163.114 8.108Q163.114 8.549 163.394 8.794Q163.674 9.039 164.101 9.151Q164.528 9.263 165.018 9.431Q165.508 9.599 165.935 9.788Q166.362 9.977 166.642 10.397Q166.922 10.817 166.922 11.419Q166.922 12.483 166.138 13.029Q165.354 13.575 164.073 13.575Q162.792 13.575 161.798 12.917Q161.84 12.203 162.218 11.643Q163.478 12.791 164.514 12.791Q164.962 12.791 165.312 12.609Q165.648 12.315 165.648 11.818Q165.648 11.321 165.263 11.048Q164.878 10.775 164.332 10.621Q163.786 10.467 163.24 10.271Q162.694 10.075 162.309 9.655Q161.924 9.235 161.924 8.563Q161.924 7.583 162.659 7.058Q163.394 6.533 164.514 6.533Q165.634 6.533 166.712 7.009Q166.586 7.625 166.222 8.241Q165.228 7.247 164.15 7.247Q163.688 7.247 163.366 7.415ZM99.414 11.223Q99.12 11.377 98.924 11.573Q98.728 11.769 98.728 11.888Q98.728 12.007 98.784 12.077Q98.84 12.147 98.98 12.203Q99.12 12.259 99.26 12.294Q99.4 12.329 99.645 12.371Q99.89 12.413 100.079 12.441Q100.268 12.469 100.59 12.518Q100.912 12.567 101.122 12.595Q102.368 12.777 102.928 13.113Q103.488 13.449 103.488 14.247Q103.488 15.381 102.438 15.997Q101.388 16.613 99.932 16.613Q98.882 16.613 98.014 16.277Q97.524 16.081 97.23 15.71Q96.936 15.339 96.936 14.807Q96.936 13.701 98.238 13.155Q97.538 12.861 97.538 12.252Q97.538 11.643 98.728 10.999Q97.496 10.369 97.496 8.941Q97.496 7.821 98.238 7.198Q98.98 6.575 100.044 6.575Q101.108 6.575 101.752 6.939Q102.256 6.939 103.404 6.827L103.782 7.625L102.508 7.597Q102.872 8.143 102.872 8.885Q102.872 10.019 102.13 10.663Q101.388 11.307 100.212 11.307Q99.792 11.307 99.414 11.223ZM114.954 13.575Q113.778 13.575 113.309 12.966Q112.84 12.357 112.84 11.083L112.84 9.081Q112.84 7.751 112.42 6.799L112.42 6.701L114.366 6.701L114.366 6.799Q114.156 7.541 114.156 8.661L114.156 10.859Q114.156 11.699 114.366 12.063Q114.576 12.427 115.388 12.427Q116.2 12.427 117.292 11.657L117.292 9.081Q117.292 7.723 116.886 6.799L116.886 6.701L118.818 6.701L118.818 6.799Q118.608 7.541 118.608 8.661L118.608 11.027Q118.608 11.643 118.818 12.238Q119.028 12.833 119.308 13.029L119.322 13.197L117.684 13.589Q117.446 12.945 117.348 12.357Q116.662 12.945 116.102 13.26Q115.542 13.575 114.954 13.575ZM54.922 7.499Q55.244 7.233 55.832 7.233Q57.218 7.233 57.218 9.291L54.348 9.403Q54.348 8.983 54.502 8.423Q54.656 7.863 54.922 7.499ZM83.636 7.233Q83.048 7.233 82.726 7.499Q82.46 7.863 82.306 8.423Q82.152 8.983 82.152 9.403L85.022 9.291Q85.022 7.233 83.636 7.233ZM99.078 9.823Q99.442 10.607 100.296 10.607Q100.884 10.607 101.108 10.411Q101.5 9.963 101.5 9.032Q101.5 8.101 101.206 7.688Q100.912 7.275 100.24 7.275Q99.568 7.275 99.246 7.457Q98.868 7.975 98.868 8.682Q98.868 9.389 99.078 9.823ZM15.008 10.229Q15.008 8.843 14.574 8.087Q14.14 7.331 13.034 7.331Q12.32 7.331 11.914 7.639Q11.662 7.961 11.501 8.619Q11.34 9.277 11.34 9.879Q11.34 12.805 13.412 12.805Q14.056 12.805 14.462 12.511Q14.728 12.189 14.868 11.517Q15.008 10.845 15.008 10.229ZM109.116 8.087Q109.55 8.843 109.55 10.229Q109.55 10.845 109.41 11.517Q109.27 12.189 109.004 12.511Q108.598 12.805 107.954 12.805Q105.882 12.805 105.882 9.879Q105.882 9.277 106.043 8.619Q106.204 7.961 106.456 7.639Q106.862 7.331 107.576 7.331Q108.682 7.331 109.116 8.087ZM157.136 12.539Q156.436 12.539 156.03 12.119Q155.288 11.377 155.288 9.921Q155.288 8.465 155.806 7.639Q156.142 7.387 156.772 7.387Q157.864 7.387 158.592 7.919L158.592 11.867Q157.836 12.539 157.136 12.539ZM41.3 12.511Q41.006 12.679 40.376 12.679Q39.396 12.679 38.514 12.091L38.514 8.311Q39.578 7.569 40.474 7.569Q41.888 7.569 41.888 9.907Q41.888 10.649 41.706 11.447Q41.524 12.245 41.3 12.511ZM48.608 12.679Q49.238 12.679 49.532 12.511Q49.756 12.245 49.938 11.447Q50.12 10.649 50.12 9.907Q50.12 7.569 48.706 7.569Q47.81 7.569 46.746 8.311L46.746 12.091Q47.628 12.679 48.608 12.679ZM4.284 12.693Q5.376 12.693 6.048 12.084Q6.72 11.475 6.72 10.467Q6.72 9.459 6.069 8.941Q5.418 8.423 3.906 8.395L3.22 8.381Q3.22 11.881 3.276 12.567Q3.696 12.693 4.284 12.693ZM33.348 10.621Q32.774 10.411 32.025 10.411Q31.276 10.411 30.94 10.649Q30.73 10.971 30.73 11.51Q30.73 12.049 31.024 12.357Q31.318 12.665 31.759 12.665Q32.2 12.665 32.662 12.434Q33.124 12.203 33.348 11.937L33.348 10.621ZM140.889 10.411Q141.638 10.411 142.212 10.621L142.212 11.937Q141.988 12.203 141.526 12.434Q141.064 12.665 140.623 12.665Q140.182 12.665 139.888 12.357Q139.594 12.049 139.594 11.51Q139.594 10.971 139.804 10.649Q140.14 10.411 140.889 10.411ZM173.418 13.365L173.53 13.253L173.53 13.141Q173.53 12.623 173.362 12.203Q173.236 12.133 173.18 12.133Q172.69 12.133 172.032 12.343L171.92 12.455L171.92 12.595Q171.92 13.127 172.102 13.519L172.242 13.575Q172.704 13.547 173.418 13.365ZM98.798 13.407Q97.832 13.757 97.832 14.513Q97.832 15.269 98.602 15.64Q99.372 16.011 100.268 16.011Q101.36 16.011 101.948 15.521Q102.298 15.241 102.298 14.807Q102.298 14.443 101.976 14.191Q101.696 13.967 100.366 13.729Q100.086 13.673 99.519 13.554Q98.952 13.435 98.798 13.407Z" />
      </g>
    </g>
  </g>
</svg>